<?xml version="1.0" standalone="no"?>
<!DOCTYPE svg PUBLIC "-//W3C//DTD SVG 20010904//EN"
 "http://www.w3.org/TR/2001/REC-SVG-20010904/DTD/svg10.dtd">
<svg version="1.0" xmlns="http://www.w3.org/2000/svg"
 width="512.000000pt" height="512.000000pt" viewBox="0 0 512.000000 512.000000"
 preserveAspectRatio="xMidYMid meet">

<g transform="translate(0.000000,512.000000) scale(0.100000,-0.100000)"
fill="#000000" stroke="none">
<path d="M2518 4789 c-31 -18 -38 -79 -38 -335 l0 -252 -37 14 c-21 7 -68 13
-105 14 -214 1 -369 -184 -337 -404 5 -36 10 -69 11 -74 6 -19 -165 -151 -273
-211 -73 -41 -202 -88 -309 -112 -131 -31 -389 -37 -531 -13 -119 20 -133 17
-158 -28 -19 -33 -1 -80 35 -97 66 -30 207 -43 394 -38 361 11 597 95 860 306
l62 50 50 -51 c28 -27 47 -53 41 -56 -5 -4 -36 -28 -69 -53 -252 -196 -505
-304 -797 -340 -123 -15 -406 -6 -502 16 -192 43 -393 130 -409 178 -23 66 28
114 101 94 55 -14 94 -1 107 36 24 66 -41 120 -143 120 -164 0 -272 -172 -200
-320 28 -58 66 -88 184 -144 123 -59 268 -102 414 -125 l110 -17 -13 -31 c-7
-17 -68 -159 -135 -316 -66 -157 -121 -295 -121 -306 0 -52 59 -85 108 -60 23
12 46 58 146 295 66 155 122 284 126 286 3 2 35 -63 69 -144 l63 -149 -64 -63
c-98 -99 -158 -233 -158 -352 l0 -50 -37 6 c-159 26 -258 15 -371 -38 -173
-82 -285 -253 -307 -470 -18 -184 60 -430 191 -605 l53 -70 -201 0 c-183 0
-206 -2 -244 -21 -31 -15 -48 -32 -63 -63 -54 -111 -4 -181 207 -289 173 -90
405 -153 647 -178 146 -14 432 -7 565 16 253 42 479 126 643 237 70 48 97 88
97 146 0 54 -20 94 -62 124 -32 22 -41 23 -252 26 l-219 3 30 32 c76 81 157
237 195 377 18 68 23 110 22 210 0 110 -3 135 -27 205 -51 147 -151 265 -274
322 -58 27 -94 24 -118 -10 -35 -50 -11 -94 73 -136 156 -79 233 -292 187
-516 -39 -187 -149 -364 -278 -447 l-51 -33 -295 -3 c-255 -3 -301 -1 -338 13
-160 61 -309 303 -338 546 -17 139 42 308 136 393 74 67 142 90 259 89 54 -1
132 -10 180 -21 84 -20 85 -20 137 0 239 89 379 349 321 597 -13 60 -35 83
-78 85 -31 1 -33 5 -106 175 -41 95 -74 176 -74 180 0 4 51 13 113 20 316 36
593 152 879 369 72 55 114 80 121 74 7 -5 45 -34 85 -66 l72 -57 0 -672 c0
-434 4 -685 10 -709 17 -59 80 -78 120 -38 20 20 20 33 20 713 l0 693 28 25
c15 14 55 47 88 73 l62 47 110 -83 c286 -217 563 -333 880 -369 95 -10 113
-15 109 -28 -2 -9 -68 -165 -146 -348 -77 -183 -141 -337 -141 -342 0 -25 25
-61 51 -71 21 -9 34 -9 56 2 24 11 45 54 163 330 74 175 138 314 142 310 4 -4
64 -142 134 -307 69 -165 134 -309 145 -319 41 -43 123 -9 121 51 0 15 -62
172 -137 348 -75 176 -140 329 -145 341 -8 20 -2 22 121 42 199 33 438 122
527 197 90 75 97 231 14 318 -43 46 -100 70 -162 70 -45 0 -73 -8 -140 -41
-191 -92 -318 -116 -560 -109 -292 9 -483 69 -687 214 -82 58 -159 124 -155
135 1 5 6 38 11 74 32 220 -123 405 -337 404 -37 -1 -84 -7 -104 -14 -21 -7
-40 -11 -43 -8 -3 3 -5 128 -5 279 0 260 -1 274 -20 293 -21 21 -64 26 -92 9z
m-93 -729 c21 -11 51 -35 67 -55 25 -29 36 -35 68 -35 33 0 43 6 65 34 54 71
165 97 245 56 104 -53 134 -184 71 -308 -24 -47 -133 -151 -274 -260 l-107
-84 -107 84 c-140 109 -250 213 -274 260 -47 93 -45 186 7 256 53 69 159 93
239 52z m670 -505 c162 -135 359 -229 580 -277 118 -25 409 -36 525 -19 115
17 234 53 351 107 91 41 101 44 126 32 34 -16 50 -58 37 -95 -16 -48 -217
-135 -409 -178 -96 -22 -379 -31 -502 -16 -292 36 -545 144 -797 340 -33 25
-64 49 -69 52 -13 9 85 108 98 101 6 -3 33 -24 60 -47z m-1768 -1213 c-2 -32
-16 -83 -30 -113 -27 -55 -90 -129 -129 -150 -21 -11 -21 -10 -16 48 8 80 48
162 110 223 28 28 55 50 61 50 6 0 8 -22 4 -58z m663 -1643 c-125 -84 -333
-163 -530 -199 -165 -31 -452 -38 -626 -16 -156 20 -320 61 -441 111 -89 37
-217 107 -228 125 -4 7 319 10 932 10 l938 0 -45 -31z"/>
<path d="M3895 2073 c-152 -14 -320 -65 -428 -129 -134 -81 -235 -224 -258
-363 -11 -71 -6 -111 21 -158 18 -31 18 -32 -3 -75 -28 -56 -28 -138 0 -193
20 -39 20 -41 2 -69 -26 -43 -31 -94 -16 -152 l14 -52 -97 -4 c-106 -4 -146
-22 -175 -78 -19 -37 -19 -103 0 -140 50 -96 366 -244 640 -299 442 -89 954
-32 1295 145 213 110 263 179 209 290 -29 61 -80 84 -188 84 -75 0 -82 2 -76
18 5 9 10 44 13 78 3 48 0 69 -17 101 -20 41 -20 41 -1 81 26 53 26 133 0 190
-20 43 -20 44 0 82 26 51 26 138 1 219 -90 291 -476 466 -936 424z m350 -163
c267 -49 447 -195 449 -365 l1 -60 -195 -5 c-107 -3 -202 -9 -212 -13 -43 -22
-43 -103 1 -126 12 -7 89 -11 189 -11 156 0 171 -2 196 -21 34 -27 36 -79 4
-109 -21 -20 -32 -20 -646 -20 -420 0 -630 3 -643 11 -48 25 -44 105 7 128 17
7 128 11 343 11 305 0 318 1 339 20 32 30 30 82 -4 109 -26 20 -38 21 -365 21
-389 0 -367 -6 -349 91 34 179 231 313 512 349 87 11 289 5 373 -10z m439
-886 c27 -11 20 -69 -13 -106 l-29 -33 -605 -3 -604 -2 -28 21 c-37 30 -59 83
-45 109 10 20 23 20 660 20 356 0 655 -3 664 -6z m258 -314 c-39 -33 -148 -89
-241 -125 -315 -122 -729 -150 -1095 -74 -175 37 -360 110 -476 188 l-45 31
940 0 c923 -1 940 -1 917 -20z"/>
</g>
</svg>
