<?xml version="1.0" standalone="no"?>
<!DOCTYPE svg PUBLIC "-//W3C//DTD SVG 20010904//EN"
 "http://www.w3.org/TR/2001/REC-SVG-20010904/DTD/svg10.dtd">
<svg version="1.0" xmlns="http://www.w3.org/2000/svg"
 width="570.000000pt" height="696.000000pt" viewBox="0 0 570.000000 696.000000"
 preserveAspectRatio="xMidYMid meet">

<g transform="translate(0.000000,696.000000) scale(0.100000,-0.100000)"
fill="#000000" stroke="none">
<path d="M510 6726 c-161 -45 -265 -164 -292 -332 -14 -95 -5 -617 12 -669 20
-58 71 -134 118 -177 104 -93 201 -112 552 -105 286 5 339 14 426 72 81 53
134 128 164 230 16 56 25 478 12 603 -21 205 -120 331 -297 378 -68 19 -629
18 -695 0z m685 -179 c51 -23 81 -52 108 -102 21 -38 22 -52 22 -345 0 -168
-3 -317 -8 -332 -10 -39 -63 -95 -111 -121 -39 -21 -55 -22 -315 -25 -173 -2
-292 1 -325 8 -73 16 -121 52 -153 119 l-28 56 0 285 c0 312 3 335 58 396 34
40 76 64 127 75 19 4 159 7 310 6 240 -2 280 -4 315 -20z"/>
<path d="M703 6380 c-58 -12 -89 -35 -112 -84 -18 -36 -21 -62 -22 -202 -1
-178 8 -214 56 -252 46 -36 99 -44 260 -40 168 4 191 11 235 76 23 33 25 46
29 181 5 211 -13 267 -98 311 -29 15 -289 23 -348 10z"/>
<path d="M1665 6714 l-25 -27 0 -388 0 -388 24 -28 c24 -28 25 -28 151 -28
126 0 127 0 151 28 17 20 24 40 24 71 0 54 19 72 85 79 86 9 123 83 71 144
-24 28 -25 28 -163 31 -107 3 -142 7 -155 19 -16 14 -18 39 -18 240 l0 224
-25 24 c-34 35 -88 34 -120 -1z"/>
<path d="M2025 6715 c-24 -23 -25 -30 -25 -149 l0 -124 31 -26 c40 -34 74 -33
110 3 22 22 29 39 29 68 0 59 22 83 76 83 89 0 135 86 78 144 -26 25 -30 26
-151 26 -118 0 -125 -1 -148 -25z"/>
<path d="M2739 6714 c-23 -24 -24 -32 -24 -151 0 -124 0 -125 28 -149 67 -57
147 -6 147 95 0 30 5 43 19 51 11 5 84 10 165 10 138 0 146 -1 160 -22 9 -12
16 -40 16 -61 0 -29 7 -46 29 -68 l29 -29 224 0 c161 0 227 -3 236 -12 7 -7
12 -26 12 -44 0 -51 20 -93 52 -110 38 -20 82 -10 108 23 19 24 20 40 20 225
0 201 -4 228 -39 255 -20 15 -66 16 -92 3 -26 -14 -49 -62 -49 -103 0 -54 -8
-57 -182 -57 l-158 0 -10 26 c-6 14 -10 41 -10 60 0 24 -8 43 -25 59 l-24 25
-304 0 -304 0 -24 -26z"/>
<path d="M4390 6726 c-138 -39 -234 -132 -278 -267 -15 -47 -17 -97 -17 -364
0 -267 2 -317 17 -364 25 -77 61 -133 115 -181 100 -89 193 -109 509 -110 339
0 439 24 540 132 100 107 118 198 112 580 -4 240 -6 268 -26 323 -42 113 -123
198 -228 238 -56 21 -74 22 -379 24 -235 1 -332 -2 -365 -11z m685 -179 c47
-21 91 -60 111 -100 24 -44 37 -236 30 -437 -3 -102 -10 -202 -15 -223 -19
-79 -79 -138 -161 -156 -63 -15 -549 -14 -607 1 -60 15 -137 87 -152 143 -15
54 -15 576 0 630 13 46 49 98 86 122 56 37 109 43 393 40 239 -2 280 -5 315
-20z"/>
<path d="M4600 6381 c-57 -9 -102 -35 -126 -75 -17 -27 -19 -52 -19 -211 0
-204 6 -225 72 -267 36 -22 47 -23 213 -23 166 0 177 1 213 24 67 41 77 76 77
264 0 151 -2 167 -23 207 -36 69 -74 83 -231 86 -72 1 -151 -1 -176 -5z"/>
<path d="M2945 6376 c-46 -20 -55 -52 -55 -187 0 -66 -5 -129 -10 -140 -8 -14
-21 -19 -51 -19 -79 0 -128 -48 -113 -112 8 -38 57 -68 109 -68 51 0 65 -14
65 -62 0 -44 22 -93 45 -102 31 -11 84 -6 100 11 22 22 35 57 35 97 0 53 9 56
175 56 194 0 185 8 185 -164 0 -70 5 -136 10 -147 6 -10 24 -26 40 -34 26 -14
34 -14 64 -1 42 17 56 42 56 95 0 51 17 67 82 74 40 5 59 13 76 32 21 25 22
33 22 235 0 206 0 209 -24 237 -24 28 -25 28 -149 28 -119 0 -127 -1 -151 -24
-21 -20 -26 -34 -26 -71 0 -64 -19 -80 -98 -80 -87 0 -92 9 -92 175 0 128 -1
132 -26 156 -23 22 -35 24 -132 27 -74 1 -116 -2 -137 -12z"/>
<path d="M2398 6013 c-15 -10 -32 -31 -38 -47 -15 -43 -13 -385 3 -415 6 -14
27 -34 45 -44 28 -17 37 -17 63 -7 37 16 59 56 59 108 0 44 14 62 49 62 60 0
102 20 117 56 8 19 12 45 8 60 -9 33 -59 64 -106 64 -46 0 -68 21 -68 65 0 50
-16 82 -49 100 -38 19 -49 19 -83 -2z"/>
<path d="M1669 5641 c-29 -29 -29 -30 -29 -149 0 -113 1 -121 25 -146 30 -33
81 -35 119 -5 26 20 26 22 26 147 -1 132 -5 148 -47 170 -35 19 -63 14 -94
-17z"/>
<path d="M2031 5644 l-31 -26 0 -123 c0 -109 2 -125 21 -149 26 -32 84 -36
120 -7 23 18 24 27 27 145 l4 126 -30 30 c-38 37 -71 38 -111 4z"/>
<path d="M2748 5651 c-54 -43 -41 -128 23 -150 38 -13 72 0 102 41 53 71 -54
165 -125 109z"/>
<path d="M3124 5660 c-46 -19 -67 -77 -44 -121 15 -27 67 -51 93 -43 12 3 32
16 45 27 27 25 30 85 5 116 -21 24 -68 35 -99 21z"/>
<path d="M3833 5660 c-42 -17 -53 -58 -53 -199 0 -147 -2 -151 -80 -151 -46 0
-90 -34 -90 -70 0 -11 0 -99 0 -195 0 -96 0 -184 0 -195 0 -36 44 -70 90 -70
70 0 80 -11 80 -88 0 -40 -5 -73 -12 -80 -7 -7 -40 -12 -80 -12 -77 0 -88 10
-88 80 0 81 -89 122 -145 65 -24 -23 -25 -30 -25 -144 0 -66 3 -127 6 -136 15
-38 55 -45 264 -45 l202 0 29 29 c23 24 29 38 29 75 0 61 17 76 86 76 85 0 94
-8 94 -89 0 -80 -7 -88 -76 -97 -66 -9 -82 -19 -92 -57 -18 -66 22 -117 91
-117 59 0 77 -14 77 -60 0 -78 41 -120 118 -120 49 0 62 -14 62 -68 0 -53 12
-77 49 -96 33 -17 67 -11 99 17 22 20 22 22 22 327 l0 307 -24 22 c-16 15 -42
25 -73 28 -26 3 -53 10 -59 14 -6 5 -14 32 -16 60 -9 85 -23 93 -187 100 -93
3 -145 10 -155 18 -21 18 -22 133 -2 150 8 7 38 16 67 20 93 15 127 84 70 142
-22 22 -39 29 -68 29 -21 0 -49 7 -61 16 -22 15 -22 19 -22 240 l0 226 -29 29
c-30 29 -58 35 -98 19z"/>
<path d="M2577 5479 c-26 -15 -49 -67 -41 -92 12 -41 45 -67 83 -67 43 1 66
17 81 54 27 73 -55 144 -123 105z"/>
<path d="M2927 5470 c-14 -11 -28 -33 -32 -49 -7 -33 15 -85 40 -95 93 -35
169 70 100 139 -30 31 -73 32 -108 5z"/>
<path d="M440 5303 c-27 -11 -49 -48 -50 -81 0 -49 37 -82 93 -82 74 0 79 -8
78 -148 -1 -132 11 -182 47 -201 43 -23 102 -5 121 36 15 34 15 407 -1 436
-22 42 -38 46 -158 46 -63 0 -122 -3 -130 -6z"/>
<path d="M955 5285 c-56 -55 -19 -145 60 -145 25 0 40 8 59 31 34 40 33 74 -3
110 -38 37 -82 39 -116 4z"/>
<path d="M1316 5288 c-40 -35 -43 -78 -11 -116 22 -27 34 -32 69 -32 23 0 52
-7 64 -16 19 -13 22 -24 22 -79 0 -55 -3 -66 -22 -79 -12 -9 -41 -16 -64 -16
-35 0 -47 -5 -69 -32 -32 -38 -29 -81 11 -115 23 -21 35 -23 152 -23 152 0
172 -8 172 -70 0 -53 17 -86 51 -100 63 -26 119 15 119 87 0 60 22 83 79 83
37 0 54 6 75 25 35 32 36 86 1 120 -23 24 -29 25 -155 25 -72 0 -140 5 -151
10 -17 10 -19 22 -19 136 0 134 -12 184 -48 203 -12 6 -72 11 -136 11 -105 0
-117 -2 -140 -22z"/>
<path d="M1865 5298 c-52 -28 -62 -92 -20 -133 53 -54 145 -16 145 60 0 66
-67 105 -125 73z"/>
<path d="M2210 5292 c-17 -14 -25 -35 -31 -77 -9 -70 -25 -85 -86 -85 -57 0
-93 -33 -93 -85 0 -53 36 -85 95 -85 61 0 85 -24 85 -85 0 -35 6 -52 25 -70
l24 -25 301 0 302 0 30 30 c25 26 29 36 24 62 -10 50 -42 78 -91 78 -60 0 -81
19 -87 80 -7 68 -30 91 -103 101 -31 4 -59 10 -63 13 -3 3 -9 32 -13 64 -6 43
-14 62 -34 80 -24 20 -36 22 -144 22 -100 0 -122 -3 -141 -18z"/>
<path d="M3097 5282 c-21 -22 -27 -38 -27 -74 0 -56 -23 -78 -83 -78 -29 0
-46 -7 -68 -29 -58 -58 -23 -127 71 -142 62 -10 80 -27 80 -77 0 -62 34 -101
88 -102 49 0 82 37 82 93 0 61 15 77 85 86 68 9 95 34 95 88 0 51 -37 83 -95
83 -61 0 -85 24 -85 85 0 88 -85 128 -143 67z"/>
<path d="M4176 5288 c-40 -35 -43 -78 -11 -116 34 -40 81 -43 121 -8 21 18 28
32 28 61 0 72 -84 110 -138 63z"/>
<path d="M4544 5298 c-35 -16 -44 -52 -44 -168 0 -101 2 -111 25 -138 20 -24
35 -30 76 -34 60 -6 79 -24 79 -74 0 -91 83 -136 144 -79 20 19 26 33 26 68 0
61 15 77 84 86 71 10 95 35 96 99 0 60 25 82 93 82 73 0 89 -14 93 -81 4 -83
-15 -109 -81 -109 -82 0 -102 -38 -99 -188 2 -102 13 -134 51 -151 39 -18 63
-13 94 18 23 24 29 38 29 74 0 57 21 77 82 77 39 0 50 5 72 31 l26 31 0 205 0
205 -29 29 -29 29 -384 -1 c-242 0 -391 -4 -404 -11z"/>
<path d="M1136 5108 c-15 -13 -29 -37 -32 -55 -5 -27 -1 -37 24 -63 38 -37 80
-40 118 -6 21 18 28 32 28 61 0 72 -84 110 -138 63z"/>
<path d="M235 4925 c-24 -23 -25 -30 -25 -140 0 -155 16 -184 102 -185 59 0
78 -23 78 -95 0 -75 -18 -91 -113 -94 -10 -1 -29 -12 -42 -26 -35 -34 -33 -78
4 -116 l29 -29 135 0 c96 0 137 -4 144 -12 6 -7 13 -35 17 -63 4 -38 13 -56
36 -77 39 -36 74 -36 111 1 29 29 29 30 29 151 0 113 -2 122 -23 144 -15 15
-41 25 -75 30 -79 10 -82 16 -82 172 0 129 -1 136 -24 159 -16 16 -40 25 -80
30 -64 8 -76 23 -76 91 0 75 -92 113 -145 59z"/>
<path d="M984 4765 c-41 -17 -58 -41 -57 -83 1 -26 9 -43 28 -59 24 -21 36
-23 145 -23 111 0 121 2 146 24 37 31 39 86 4 121 -23 22 -35 25 -131 28 -70
3 -116 0 -135 -8z"/>
<path d="M2025 4745 c-35 -34 -34 -88 1 -120 37 -35 78 -33 116 5 26 27 30 36
25 68 -12 70 -92 97 -142 47z"/>
<path d="M4531 4753 c-12 -10 -24 -35 -28 -55 -5 -32 -1 -41 26 -69 28 -27 37
-31 69 -26 46 8 72 38 72 84 0 69 -86 109 -139 66z"/>
<path d="M2638 4651 c-158 -51 -290 -183 -338 -339 -27 -88 -28 -237 0 -316
84 -246 316 -391 570 -356 110 15 206 64 290 147 109 110 150 210 150 368 0
111 -17 180 -67 264 -62 105 -174 195 -291 231 -85 26 -233 27 -314 1z m395
-282 c7 -12 2 -70 -20 -205 -38 -228 -43 -244 -80 -244 -35 0 -213 123 -213
148 0 9 39 56 87 104 48 49 82 88 75 88 -7 0 -62 -34 -123 -76 -62 -41 -123
-77 -138 -80 -29 -6 -143 26 -148 41 -1 6 1 15 5 21 6 10 435 197 492 215 34
10 51 7 63 -12z"/>
<path d="M1330 4583 c-62 -32 -62 -119 0 -150 30 -15 217 -18 255 -3 54 21 62
102 13 146 -30 28 -218 33 -268 7z"/>
<path d="M4743 4593 c-31 -6 -63 -50 -63 -85 0 -19 10 -40 29 -59 29 -29 31
-29 141 -29 140 0 179 18 180 83 1 73 -44 98 -172 96 -51 -1 -103 -4 -115 -6z"/>
<path d="M1012 4413 c-4 -1 -19 -4 -33 -7 -41 -9 -59 -58 -59 -164 0 -49 5
-103 11 -121 13 -38 54 -61 107 -61 21 0 43 -5 50 -12 8 -8 12 -54 12 -140 0
-191 15 -208 180 -208 135 0 170 19 170 93 0 53 -26 77 -90 86 -31 4 -61 10
-68 15 -16 10 -16 138 0 154 7 7 40 12 80 12 77 0 88 -10 88 -79 0 -55 33 -92
83 -94 53 -1 87 35 94 99 7 64 17 74 68 74 96 0 142 97 74 154 l-31 26 -222 0
c-159 0 -225 3 -234 12 -7 7 -12 26 -12 44 0 46 -18 90 -43 102 -18 9 -198 21
-225 15z"/>
<path d="M1841 4384 c-12 -15 -21 -40 -21 -56 0 -38 48 -88 85 -88 39 0 85 50
85 92 0 48 -34 78 -87 78 -33 0 -46 -6 -62 -26z"/>
<path d="M5067 4392 c-22 -24 -37 -67 -37 -107 0 -37 -1 -38 -85 -49 -68 -9
-102 -68 -74 -129 14 -31 48 -47 98 -47 47 0 57 -11 66 -73 11 -69 38 -96 103
-104 69 -8 87 -32 79 -104 -10 -78 -11 -79 -159 -79 -130 0 -160 -6 -185 -39
-20 -26 -15 -77 10 -107 19 -22 34 -28 81 -32 67 -5 70 -10 75 -100 0 -13 12
-34 26 -47 23 -24 30 -25 150 -25 111 0 127 2 145 20 11 11 22 30 25 42 3 13
4 234 3 491 l-3 469 -24 19 c-20 16 -40 19 -151 19 -108 0 -129 -3 -143 -18z"/>
<path d="M3484 4230 c-52 -21 -54 -32 -54 -348 0 -191 4 -300 11 -314 17 -32
71 -48 162 -48 97 0 139 12 161 45 24 37 20 73 -13 106 -24 23 -38 29 -74 29
-60 0 -77 21 -77 91 0 86 3 87 167 91 190 4 187 2 191 171 3 111 2 125 -17
149 -60 75 -161 21 -161 -86 0 -47 -15 -56 -92 -56 -77 0 -88 10 -88 79 0 67
-61 114 -116 91z"/>
<path d="M264 4050 c-86 -34 -61 -162 31 -162 80 0 116 95 54 146 -32 27 -50
30 -85 16z"/>
<path d="M2029 4031 c-22 -22 -29 -39 -29 -68 0 -59 -22 -83 -76 -83 -37 0
-51 -6 -75 -29 l-29 -29 0 -129 c0 -156 -7 -173 -76 -173 -88 0 -136 -89 -79
-145 23 -24 30 -25 150 -25 120 0 127 1 150 25 24 23 25 29 25 159 0 152 6
166 66 166 42 0 89 23 104 49 5 11 10 72 10 136 0 115 0 117 -29 146 -18 17
-40 29 -56 29 -16 0 -38 -12 -56 -29z"/>
<path d="M421 3854 c-39 -33 -42 -80 -7 -120 51 -60 146 -20 146 61 0 39 -46
85 -85 85 -13 0 -37 -12 -54 -26z"/>
<path d="M4200 3873 c-49 -18 -70 -74 -46 -121 48 -93 196 -28 156 68 -18 44
-69 68 -110 53z"/>
<path d="M4554 3870 c-55 -22 -69 -91 -30 -137 24 -28 25 -28 151 -28 126 0
127 0 151 28 35 41 32 88 -7 121 -29 25 -37 26 -137 25 -59 0 -117 -4 -128 -9z"/>
<path d="M1489 3671 c-31 -31 -35 -53 -19 -96 12 -33 69 -59 102 -46 49 18 77
75 57 113 -32 63 -93 75 -140 29z"/>
<path d="M4349 3671 c-80 -81 35 -196 119 -118 32 30 30 90 -4 122 -37 34 -78
33 -115 -4z"/>
<path d="M236 3489 c-51 -60 -17 -139 59 -139 78 0 115 93 59 145 -39 36 -85
34 -118 -6z"/>
<path d="M603 3502 c-27 -21 -43 -62 -43 -107 0 -41 -8 -47 -80 -56 -64 -9
-90 -33 -90 -86 0 -53 43 -89 101 -84 9 1 28 -3 42 -8 22 -9 27 -17 27 -46 0
-46 23 -101 48 -114 62 -33 132 9 132 79 0 63 12 78 73 85 67 9 96 30 103 77
6 32 2 41 -24 68 -23 23 -39 30 -69 30 -59 0 -83 22 -83 76 0 82 -79 132 -137
86z"/>
<path d="M955 3497 c-59 -50 -22 -147 54 -147 40 1 62 14 79 47 19 35 14 63
-17 94 -36 36 -79 38 -116 6z"/>
<path d="M1317 3500 c-66 -52 -31 -149 54 -150 75 0 109 91 54 145 -30 31 -73
32 -108 5z"/>
<path d="M2397 3509 c-24 -14 -47 -69 -47 -113 0 -25 -6 -38 -19 -46 -11 -5
-78 -10 -149 -10 -159 0 -171 -6 -183 -95 -9 -69 -25 -85 -83 -85 -62 -1 -87
-26 -97 -95 -4 -32 -12 -62 -18 -68 -5 -5 -33 -12 -60 -15 -37 -3 -58 -12 -76
-30 -24 -24 -25 -30 -25 -144 l0 -120 30 -30 c27 -26 36 -30 68 -24 46 7 71
39 72 91 0 63 21 85 81 85 70 0 99 29 99 99 0 60 22 81 86 81 61 0 83 23 93
93 4 32 13 63 20 70 8 8 58 13 149 15 172 3 184 -2 194 -78 8 -70 39 -100 102
-100 75 0 76 -2 76 -276 0 -173 -3 -243 -12 -252 -7 -7 -27 -12 -45 -12 -53 0
-98 -24 -113 -59 -11 -28 -11 -37 3 -67 22 -45 49 -54 168 -54 142 0 179 25
179 120 0 29 5 42 19 50 11 5 74 10 141 10 163 0 190 14 190 99 0 56 18 73 86
82 67 9 94 32 94 81 0 60 -30 86 -108 95 -26 2 -51 9 -57 14 -5 6 -11 76 -13
157 -3 118 0 151 12 167 13 19 29 20 251 25 l236 5 19 25 c30 39 26 83 -11
114 -29 25 -35 26 -160 26 -152 0 -169 8 -169 84 0 33 -6 49 -26 70 l-27 26
-209 0 -210 0 -29 -29 c-32 -33 -36 -58 -14 -100 17 -33 33 -41 86 -41 59 0
79 -26 79 -99 0 -74 -18 -91 -96 -91 -63 0 -79 16 -87 84 -9 83 -23 90 -193
96 -162 6 -164 6 -164 78 0 76 -74 125 -133 91z m651 -535 c21 -15 22 -21 22
-168 0 -179 -1 -181 -90 -181 -89 0 -90 2 -90 181 0 125 3 155 16 168 21 21
112 21 142 0z"/>
<path d="M4007 3509 c-24 -14 -49 -73 -40 -96 24 -69 102 -86 148 -31 21 25
25 38 21 62 -11 59 -80 93 -129 65z"/>
<path d="M4529 3491 c-32 -33 -36 -58 -14 -100 17 -33 33 -41 84 -41 20 0 47
-7 59 -16 19 -13 22 -24 22 -79 0 -91 -7 -95 -185 -95 -94 1 -145 5 -156 13
-10 7 -18 33 -21 66 -4 43 -11 60 -32 78 -61 53 -146 6 -146 -81 0 -71 -10
-76 -161 -76 -72 0 -139 -5 -150 -10 -39 -21 -49 -62 -49 -199 0 -144 6 -133
-79 -146 -57 -9 -91 -42 -91 -88 0 -53 26 -77 90 -86 31 -4 61 -10 68 -15 9
-5 12 -63 12 -223 0 -302 4 -308 208 -301 124 4 142 16 150 100 2 29 9 59 14
66 8 9 54 12 169 12 146 0 159 -1 169 -19 12 -24 13 -121 1 -140 -5 -8 -35
-18 -68 -22 -71 -10 -103 -41 -103 -104 0 -57 -11 -67 -75 -76 -31 -4 -65 -15
-75 -24 -45 -41 -29 -121 29 -145 19 -8 67 -11 135 -8 127 4 149 18 160 101 4
28 12 57 18 64 6 8 35 13 74 13 81 0 94 -12 94 -90 0 -73 -15 -90 -76 -90 -37
0 -51 -6 -75 -29 -16 -16 -29 -39 -29 -51 0 -29 26 -76 45 -84 9 -3 70 -6 135
-6 167 0 164 -4 170 183 3 80 8 149 13 153 4 4 33 11 65 15 43 6 62 14 80 34
20 24 22 36 22 145 0 109 -2 121 -22 145 -18 20 -37 28 -80 34 -32 4 -61 10
-64 13 -3 4 -9 32 -13 63 -10 71 -31 94 -98 102 -28 3 -57 9 -64 14 -11 7 -14
58 -14 254 0 280 -2 275 82 275 33 0 50 6 68 25 25 24 25 24 25 238 l0 214
-26 27 c-26 25 -30 26 -146 26 -119 0 -120 0 -149 -29z m-51 -517 c22 -15 22
-19 22 -250 0 -143 -4 -243 -10 -255 -10 -18 -24 -19 -260 -19 -236 0 -250 1
-260 19 -6 12 -10 112 -10 255 0 231 0 235 22 250 19 13 60 16 248 16 188 0
229 -3 248 -16z"/>
<path d="M4168 2770 c-25 -26 -29 -36 -24 -63 9 -48 51 -80 95 -73 42 7 68 31
77 72 4 24 0 37 -21 62 -37 44 -84 44 -127 2z"/>
<path d="M1488 3310 c-26 -27 -30 -36 -24 -68 13 -82 116 -98 158 -25 17 29
18 35 4 66 -26 64 -88 76 -138 27z"/>
<path d="M235 3135 c-54 -53 -16 -145 60 -145 49 0 85 36 85 85 0 76 -92 114
-145 60z"/>
<path d="M1305 3128 c-32 -38 -29 -81 11 -115 31 -29 73 -29 108 -2 21 16 26
29 26 64 0 35 -5 48 -26 64 -40 32 -87 28 -119 -11z"/>
<path d="M5073 3145 c-32 -22 -43 -65 -28 -102 16 -38 42 -53 92 -53 64 0 78
-18 78 -94 0 -38 -5 -70 -13 -78 -8 -8 -48 -11 -129 -10 -129 2 -175 -8 -198
-41 -18 -26 -19 -76 -2 -98 27 -35 54 -39 257 -39 l202 0 29 29 29 29 0 205 0
205 -26 31 -26 31 -122 0 c-91 0 -127 -4 -143 -15z"/>
<path d="M2206 2959 c-26 -20 -26 -22 -26 -155 0 -130 -1 -136 -25 -159 -18
-19 -35 -25 -69 -25 -36 0 -48 -5 -65 -26 -19 -24 -21 -41 -21 -148 0 -155 -7
-169 -79 -176 -42 -5 -58 -12 -77 -33 -53 -62 -8 -147 79 -147 58 0 72 -17 72
-90 0 -78 -12 -90 -91 -90 -54 0 -65 3 -78 22 -9 12 -16 41 -16 63 0 82 -94
122 -146 61 -22 -25 -24 -36 -24 -142 0 -64 5 -124 10 -135 15 -27 63 -49 109
-49 48 0 61 -18 61 -80 0 -30 6 -47 25 -65 l24 -25 300 0 c165 0 307 3 316 6
23 9 45 58 45 102 0 48 14 62 62 62 74 0 118 44 118 117 0 45 17 63 61 63 83
0 135 58 108 121 -22 55 -45 59 -378 59 -346 0 -331 -4 -331 90 0 73 15 90 76
90 37 0 51 6 75 29 l29 29 0 225 c0 257 0 257 82 257 39 0 50 5 72 31 28 33
32 59 14 92 -22 42 -38 46 -164 47 -108 0 -124 -2 -148 -21z"/>
<path d="M3455 2955 c-69 -68 13 -179 98 -133 33 17 46 39 47 76 0 73 -93 110
-145 57z"/>
<path d="M615 2853 c-78 -9 -153 -27 -188 -44 -82 -42 -164 -138 -194 -226
-20 -61 -31 -594 -14 -687 30 -161 137 -283 283 -322 74 -19 630 -20 703 0
104 27 181 82 233 164 55 86 64 134 69 392 9 389 -12 495 -122 605 -100 102
-205 126 -535 123 -113 0 -218 -3 -235 -5z m580 -196 c51 -23 81 -52 108 -102
21 -38 22 -52 22 -350 0 -303 0 -311 -23 -353 -29 -55 -90 -98 -158 -112 -37
-8 -146 -10 -322 -8 -300 5 -312 7 -374 76 -60 66 -63 86 -63 397 1 246 3 286
19 328 22 59 92 123 149 136 23 5 168 9 322 8 245 -2 285 -4 320 -20z"/>
<path d="M691 2490 c-47 -11 -83 -40 -105 -84 -16 -32 -18 -62 -19 -201 0
-143 3 -168 20 -202 41 -80 107 -99 317 -91 128 5 162 15 202 60 36 39 44 84
44 240 0 163 -8 197 -56 241 -15 15 -49 31 -76 37 -56 12 -277 12 -327 0z"/>
<path d="M1688 2435 c-56 -31 -64 -91 -19 -136 31 -31 59 -36 94 -17 33 17 46
39 47 79 0 62 -68 104 -122 74z"/>
<path d="M5280 2443 c-82 -30 -80 -148 4 -169 56 -14 114 47 101 107 -9 41
-67 75 -105 62z"/>
<path d="M2942 2257 c-74 -42 -63 -142 19 -162 38 -9 84 17 98 56 14 39 -8 91
-45 108 -31 14 -43 14 -72 -2z"/>
<path d="M3298 2255 c-15 -9 -32 -24 -38 -35 -6 -11 -10 -132 -10 -315 l0
-296 25 -24 c53 -54 145 -16 145 59 0 19 4 46 10 60 9 25 13 26 84 26 41 0 78
-4 81 -10 3 -5 9 -33 12 -62 7 -69 33 -98 85 -98 29 0 45 7 63 26 25 27 25 28
25 235 0 205 0 208 -24 236 -24 28 -25 28 -165 31 -131 3 -142 5 -156 25 -8
12 -15 38 -15 59 0 69 -66 114 -122 83z"/>
<path d="M5265 2075 c-38 -21 -45 -32 -45 -77 0 -28 7 -42 31 -62 36 -30 38
-31 84 -11 56 23 71 85 33 129 -30 33 -66 40 -103 21z"/>
<path d="M2945 1900 c-67 -26 -68 -122 -3 -156 23 -12 36 -13 62 -4 69 22 79
122 16 155 -32 17 -45 18 -75 5z"/>
<path d="M5078 1891 c-31 -25 -46 -69 -43 -131 1 -25 2 -69 3 -98 2 -41 7 -58
27 -77 23 -24 30 -25 144 -25 66 0 127 3 136 6 8 4 23 20 31 36 33 63 -13 128
-91 128 -53 0 -75 22 -75 78 0 78 -77 126 -132 83z"/>
<path d="M1660 777 c-70 -24 -100 -60 -100 -120 0 -55 46 -99 120 -117 91 -21
120 -36 120 -62 0 -31 -10 -45 -43 -57 -38 -15 -81 -4 -113 30 -50 52 -111 28
-80 -32 22 -44 62 -63 139 -67 89 -5 138 13 167 60 34 55 23 129 -23 158 -12
8 -58 23 -101 34 -99 26 -122 51 -82 91 36 36 77 33 125 -10 21 -19 48 -35 59
-35 53 0 26 91 -34 116 -49 21 -114 25 -154 11z"/>
<path d="M3304 697 c-50 -53 -95 -93 -98 -90 -3 4 -6 37 -6 74 0 37 -3 74 -6
83 -9 23 -61 21 -74 -3 -6 -12 -10 -94 -10 -196 0 -102 4 -184 10 -196 12 -21
50 -25 68 -7 7 7 12 37 12 68 0 56 18 90 47 90 5 0 40 -38 77 -85 70 -88 98
-104 126 -70 18 21 3 50 -70 140 -33 41 -60 77 -60 82 0 4 27 37 60 73 64 70
74 102 38 121 -19 10 -29 3 -114 -84z"/>
<path d="M3892 783 c-12 -3 -40 -21 -61 -41 -68 -65 -62 -162 12 -216 42 -31
127 -29 161 3 22 21 26 22 32 8 9 -25 -15 -84 -43 -107 -36 -28 -62 -25 -112
12 -34 24 -47 29 -60 21 -45 -29 0 -94 79 -113 93 -22 181 27 208 117 19 64
15 177 -7 221 -42 83 -111 114 -209 95z m113 -88 c14 -13 25 -35 25 -48 0 -32
-33 -73 -65 -81 -29 -7 -79 15 -89 39 -33 86 65 154 129 90z"/>
<path d="M4373 780 c-25 -10 -72 -72 -137 -180 -83 -139 -75 -162 65 -170 89
-5 92 -6 96 -30 6 -42 11 -50 37 -50 27 0 46 25 46 58 0 13 9 22 25 26 14 4
28 13 32 21 7 20 -14 45 -37 45 -17 0 -19 13 -22 125 -3 133 -9 149 -58 159
-14 3 -35 1 -47 -4z m25 -177 l-3 -98 -67 -3 c-38 -2 -68 0 -68 4 0 22 116
194 132 194 5 0 7 -43 6 -97z"/>
<path d="M1160 767 c-49 -16 -123 -93 -138 -143 -30 -101 -9 -198 58 -264 52
-52 99 -70 188 -70 74 0 92 6 92 32 0 18 -5 19 -48 13 -171 -23 -287 105 -242
267 51 180 330 180 369 -1 17 -78 -6 -147 -46 -139 -15 3 -18 15 -21 73 -1 39
-4 80 -7 93 -6 24 -34 29 -53 10 -10 -10 -17 -10 -32 0 -58 36 -132 -2 -146
-73 -20 -107 74 -194 147 -136 24 19 25 19 48 0 61 -50 151 3 165 96 14 88
-20 167 -91 216 -42 29 -55 33 -128 35 -44 2 -96 -2 -115 -9z m130 -186 c15
-28 12 -73 -6 -99 -32 -46 -84 -14 -84 53 0 22 5 46 12 53 19 19 66 15 78 -7z"/>
<path d="M1943 764 c-12 -31 11 -49 68 -54 l54 -5 6 -175 c3 -96 6 -176 7
-177 7 -9 63 -1 67 10 3 6 7 84 9 172 3 88 5 163 5 168 1 4 22 7 49 7 58 0 75
10 70 41 l-3 24 -163 3 c-144 2 -163 1 -169 -14z"/>
<path d="M2398 758 c-8 -13 -24 -50 -35 -83 -12 -33 -39 -111 -62 -173 -44
-123 -43 -152 3 -152 28 0 39 13 56 63 l12 38 81 -3 c80 -3 80 -3 90 -33 14
-45 37 -66 66 -63 41 5 37 39 -19 193 -28 77 -56 154 -62 170 -17 48 -37 65
-78 65 -28 0 -41 -6 -52 -22z m88 -154 c12 -38 20 -72 17 -76 -8 -14 -103 -9
-103 5 0 31 43 148 53 144 6 -2 21 -35 33 -73z"/>
<path d="M2730 770 c-12 -7 -16 -42 -18 -187 -4 -197 3 -233 42 -233 35 0 45
18 48 90 l3 65 39 0 c37 0 39 -2 81 -75 37 -65 46 -75 70 -75 49 0 54 27 17
94 -33 59 -40 91 -22 91 20 0 50 65 50 108 0 53 -29 98 -76 118 -38 16 -211
19 -234 4z m192 -72 c21 -10 32 -49 24 -83 -7 -28 -61 -49 -111 -43 -29 3 -30
4 -33 67 -2 45 1 67 10 72 14 9 83 1 110 -13z"/>
<path d="M3502 312 c-17 -3 -22 -9 -20 -25 3 -21 8 -22 141 -25 l137 -3 0 25
c0 15 -7 27 -17 30 -19 5 -202 4 -241 -2z"/>
</g>
</svg>
