<?xml version="1.0" standalone="no"?>
<!DOCTYPE svg PUBLIC "-//W3C//DTD SVG 20010904//EN"
 "http://www.w3.org/TR/2001/REC-SVG-20010904/DTD/svg10.dtd">
<svg version="1.0" xmlns="http://www.w3.org/2000/svg"
 width="443.000000pt" height="446.000000pt" viewBox="0 0 443.000000 446.000000"
 preserveAspectRatio="xMidYMid meet">

<g transform="translate(0.000000,446.000000) scale(0.100000,-0.100000)"
fill="#000000" stroke="none">
<path d="M222 3758 l3 -483 472 -3 473 -2 5 22 c3 13 4 230 3 483 l-3 460
-478 3 -477 2 2 -482z m816 330 c19 -19 17 -661 -2 -677 -9 -8 -109 -11 -347
-9 l-334 3 -3 335 c-1 184 0 341 3 347 6 18 665 19 683 1z"/>
<path d="M501 3956 c-8 -9 -11 -73 -9 -207 l3 -194 203 -3 202 -2 0 204 c0
177 -2 205 -16 210 -9 3 -96 6 -194 6 -139 0 -180 -3 -189 -14z"/>
<path d="M2150 4170 l0 -70 -60 0 c-68 0 -69 -1 -73 -75 l-2 -50 47 -5 c77 -9
88 -1 88 69 l0 60 68 3 67 3 0 65 0 65 -67 3 -68 3 0 -71z"/>
<path d="M2717 4233 c-4 -3 -7 -64 -7 -135 l0 -128 124 0 c99 0 128 -3 140
-15 16 -17 19 -74 5 -112 l-9 -23 -265 0 -265 0 -2 -22 c-1 -13 0 -36 1 -53 1
-16 -1 -67 -5 -112 l-6 -82 -136 -3 -137 -3 0 -135 0 -135 68 -3 67 -3 0 -69
0 -70 69 0 c67 0 69 -1 72 -27 2 -16 2 -46 -1 -68 l-5 -40 -65 -5 -65 -5 -5
-65 -5 -65 -67 -3 -68 -3 0 -38 0 -38 93 -6 c149 -10 240 -47 346 -141 48 -44
69 -56 90 -54 25 3 26 6 31 73 l5 70 62 3 62 3 3 62 3 62 64 3 c75 4 81 -1 81
-75 l0 -53 270 0 270 0 5 -22 c2 -13 6 -45 7 -73 l3 -50 68 -3 67 -3 -2 -207
-3 -207 -68 -3 -68 -3 3 -62 3 -62 65 -5 65 -5 3 -129 c1 -71 -1 -132 -5 -136
-4 -3 -36 -4 -70 -2 l-62 4 -3 61 -3 62 -70 5 -70 5 -3 133 -3 132 -52 0 c-74
0 -79 6 -75 81 l3 64 63 3 62 3 0 135 0 135 -62 -3 -63 -3 -5 -60 -5 -60 -132
-3 -132 -3 -3 63 -3 63 -70 0 -70 0 0 -130 0 -130 68 -3 c43 -2 68 -7 69 -15
0 -7 2 -39 2 -72 l1 -60 138 -3 138 -3 -3 -62 -3 -62 -67 -3 -68 -3 0 -69 0
-70 -65 0 -65 0 0 135 0 136 -72 -3 -73 -3 -3 -197 -2 -197 -103 -3 c-150 -4
-167 -2 -167 27 0 37 -15 38 -67 5 -70 -45 -164 -72 -263 -75 l-85 -3 -5 -49
-5 -48 -60 0 -60 0 -5 62 c-3 34 -10 67 -15 72 -11 11 -110 -10 -126 -26 -4
-4 -9 -30 -11 -58 l-3 -50 -62 -3 -63 -3 0 47 c0 35 -6 53 -26 77 -30 36 -30
57 6 189 l24 88 -24 72 c-29 87 -32 233 -7 310 8 26 12 49 9 52 -3 4 -60 6
-128 6 l-122 0 -6 -25 c-9 -37 -6 -638 3 -653 4 -7 31 -14 59 -16 60 -3 67 -7
68 -49 1 -18 2 -47 3 -64 l1 -33 70 0 71 0 -3 -62 -3 -63 -67 -3 c-76 -3 -71
-8 -72 78 l-1 45 -59 3 c-70 4 -76 -2 -76 -75 l0 -53 -205 0 -206 0 3 63 3 62
55 3 c30 2 58 9 62 15 4 7 8 38 8 69 0 57 0 57 -32 63 -18 3 -40 4 -48 3 -45
-4 -48 0 -52 67 l-3 65 61 0 c71 0 74 -4 74 -81 l0 -49 70 0 71 0 -3 133 -3
132 -132 3 -131 3 -4 64 -3 65 55 0 c31 0 61 5 68 12 12 12 16 95 6 122 -5 12
-20 16 -60 16 -63 0 -66 -4 -68 -88 l-1 -57 -72 -3 -72 -3 -3 73 -3 73 -200 0
-200 0 -5 -70 -5 -70 -132 -3 -133 -3 0 -134 0 -135 65 0 66 0 -3 -67 -3 -66
-60 -1 -60 -1 0 -70 0 -70 63 -3 62 -3 0 -64 0 -65 -65 0 -65 0 0 -70 0 -71
63 3 62 3 3 68 3 68 67 -3 67 -3 5 -65 5 -65 35 -5 c19 -3 80 -3 135 0 l100 5
3 133 3 133 62 -3 62 -3 5 -60 5 -60 70 -5 70 -5 1 -50 c1 -27 2 -58 3 -67 1
-16 14 -18 124 -18 67 0 127 -4 134 -8 7 -4 13 -36 15 -72 l3 -65 72 -3 71 -3
-5 112 c-3 61 -2 126 2 145 l6 34 64 0 65 0 -2 -66 c-3 -71 4 -81 49 -78 15 1
72 3 125 3 l97 1 3 68 3 67 135 0 135 0 3 -142 3 -142 -138 -3 -138 -3 0 -60
0 -60 135 0 135 0 3 63 3 62 133 0 c97 0 137 4 144 13 6 7 11 36 10 66 0 29 3
55 6 58 10 11 100 12 113 1 10 -8 13 -59 13 -209 l0 -198 33 -3 c17 -2 78 -2
134 0 l102 3 3 132 3 132 64 3 c45 2 67 -1 72 -10 5 -7 8 -130 8 -273 l-1
-260 66 -3 66 -3 0 -49 c0 -76 -4 -80 -71 -80 -65 0 -63 -3 -59 77 l2 52 -74
3 -73 3 -3 68 -3 68 -62 -3 -62 -3 -5 -65 -5 -65 -67 -3 -67 -3 -3 -62 -3 -62
-137 -3 -137 -3 -3 63 -3 63 -67 3 -67 3 -3 67 -3 67 -62 3 c-55 3 -63 1 -64
-15 -1 -10 -2 -25 -3 -33 -2 -8 -3 -32 -4 -52 l-2 -38 -70 0 -70 0 0 70 0 71
-62 -3 -63 -3 -3 -68 -3 -67 -69 0 c-39 0 -70 3 -71 8 -1 12 -1 294 0 354 l1
57 68 3 67 3 0 60 0 60 -129 3 c-97 2 -132 -1 -138 -10 -4 -7 -8 -62 -8 -123
1 -60 1 -116 1 -122 -1 -9 -18 -13 -48 -13 -90 0 -94 -4 -91 -74 l3 -61 68 -3
c61 -3 67 -5 68 -25 1 -12 2 -35 4 -51 5 -59 -1 -65 -74 -68 l-66 -3 -3 -62
-3 -63 65 0 c72 0 81 -7 77 -59 -1 -19 1 -47 4 -63 6 -26 9 -28 60 -28 32 0
57 5 62 13 4 6 10 39 13 72 l5 60 68 3 67 3 0 -70 c0 -66 2 -71 23 -76 13 -4
105 -5 205 -3 l181 3 3 -65 3 -65 65 0 65 0 3 62 3 63 69 0 70 0 1 -37 c1 -21
1 -42 0 -46 -1 -4 3 -17 9 -27 8 -16 21 -20 58 -20 27 0 53 5 60 12 7 7 12 36
12 65 l0 53 58 0 c31 0 62 4 69 8 7 4 13 36 15 72 l3 65 60 0 60 0 3 -60 c2
-32 8 -65 14 -72 6 -8 34 -13 69 -13 64 0 61 3 64 -70 1 -22 6 -45 12 -51 5
-5 34 -9 64 -7 l54 3 3 63 3 62 57 0 c31 0 63 4 70 8 9 7 12 41 10 138 l-3
129 -67 3 -68 3 0 69 0 70 135 0 135 0 0 -119 c0 -66 3 -126 6 -135 5 -12 20
-16 63 -16 31 0 62 -5 69 -12 16 -16 16 -113 -1 -126 -7 -6 -40 -12 -72 -14
l-60 -3 -3 -51 c-2 -35 2 -55 11 -63 10 -8 70 -11 208 -9 l194 3 3 63 3 62
-53 0 c-75 0 -80 6 -76 81 l3 64 63 3 62 3 0 64 0 64 73 3 72 3 3 67 c3 76 3
76 -87 68 l-56 -5 -3 -68 -3 -68 -62 3 -62 3 -3 132 c-2 122 -1 132 17 138 10
3 23 5 27 4 5 -1 26 -1 47 0 l37 1 0 135 0 135 69 0 c78 0 81 -3 81 -80 l0
-49 63 -3 62 -3 3 -71 3 -70 47 2 c26 1 57 3 70 3 l22 1 0 204 c0 164 -3 205
-14 209 -29 11 -378 8 -392 -4 -9 -8 -14 -33 -14 -76 l0 -64 -62 3 -63 3 -3
142 -3 143 66 0 65 0 0 65 0 65 -65 0 -65 0 0 74 0 74 123 0 c67 0 130 -2 140
-4 15 -5 17 -20 17 -140 l0 -135 63 3 62 3 5 60 5 60 65 5 65 5 3 207 2 207
-67 3 -68 3 -3 62 -3 62 68 3 68 3 3 207 2 207 -67 3 -68 3 0 70 0 70 68 3 67
3 0 134 0 135 -70 0 -69 0 -3 68 -3 67 -60 0 -60 0 0 -65 0 -65 63 -3 63 -3
-3 -67 -3 -67 -137 -3 -138 -3 0 71 0 70 -65 0 -65 0 0 65 c0 74 -7 79 -91 73
l-44 -3 0 -65 0 -65 68 -3 67 -3 0 -69 0 -70 -133 0 c-90 0 -137 4 -145 12 -7
7 -12 38 -12 70 l0 58 -259 0 c-143 0 -266 3 -275 6 -12 5 -16 21 -16 65 0 70
-5 68 160 72 l115 2 3 194 c2 132 -1 198 -9 207 -8 10 -46 14 -137 16 l-127 3
0 65 0 65 130 3 c88 2 132 7 137 15 4 7 8 93 8 192 0 99 -4 185 -8 192 -5 8
-49 13 -137 15 l-130 3 -3 68 -3 67 -58 0 c-32 0 -61 -3 -64 -7z m-9 -615 l3
-68 -71 0 -70 0 0 63 c0 35 3 67 7 71 4 4 34 6 68 4 l60 -3 3 -67z m-273 -238
c3 -11 4 -24 0 -30 -3 -5 -3 -25 1 -44 l6 -35 62 -3 61 -3 0 -65 0 -65 -62 -3
c-60 -3 -63 -2 -69 23 -3 14 -3 45 0 70 l7 45 -75 0 -76 0 0 58 c0 32 3 62 7
65 3 4 35 7 69 7 54 0 64 -3 69 -20z m270 -45 l0 -60 -67 -3 -68 -3 0 66 0 66
68 -3 67 -3 0 -60z m279 43 c10 -40 7 -85 -8 -97 -9 -7 -38 -11 -73 -9 l-58 3
-3 49 c-5 73 -2 76 72 76 58 0 64 -2 70 -22z m828 -590 l3 -63 67 -3 c81 -3
77 4 81 -162 l2 -115 60 -5 60 -5 3 -67 3 -68 -66 0 -65 0 0 -210 0 -209 63
-3 62 -3 3 -59 c2 -33 -1 -62 -7 -66 -9 -5 -75 -5 -113 -1 -5 1 -8 30 -8 66
l0 64 -72 3 -73 3 -3 343 -2 342 -65 0 -65 0 0 140 0 140 65 0 64 0 3 -62z
m-2910 -700 l3 -63 70 -5 70 -5 0 -65 0 -65 -137 -3 -138 -3 0 136 0 135 65 0
64 0 3 -62z m-412 -138 l0 -70 -70 0 -70 0 0 63 c0 35 3 67 7 70 3 4 35 7 70
7 l63 0 0 -70z m2770 -210 l5 -135 63 -3 63 -3 -3 -62 -3 -62 -270 -5 -270 -5
-3 -67 -3 -68 -124 0 c-69 0 -128 -1 -132 -2 -5 -2 -9 29 -11 69 l-3 72 68 3
68 3 5 60 5 60 60 5 60 5 3 73 3 73 127 -2 c70 -2 133 0 140 4 7 5 12 31 12
68 l0 60 68 -3 67 -3 5 -135z m-2506 4 c13 -5 16 -21 16 -75 l0 -69 -210 0
-210 0 0 68 c0 38 3 71 6 75 8 8 377 9 398 1z m1678 -156 c2 -7 2 -37 0 -66
l-4 -53 -66 3 -67 3 -3 49 c-2 27 -1 55 2 62 7 19 132 20 138 2z m1248 -53 l0
-65 -70 0 -70 0 0 65 0 65 70 0 70 0 0 -65z m-151 -219 c8 -9 11 -73 9 -207
l-3 -194 -207 -3 -208 -2 0 204 c0 154 3 206 13 209 6 3 96 6 198 6 147 1 189
-2 198 -13z m-1659 -751 l0 -65 -65 0 -65 0 0 65 0 65 65 0 65 0 0 -65z m418
-137 l-3 -73 -65 0 -65 0 -3 59 c-4 84 -3 86 73 86 l66 0 -3 -72z"/>
<path d="M3264 1166 c-3 -7 -4 -35 -2 -62 l3 -49 63 -3 62 -3 0 66 0 65 -60 0
c-42 0 -62 -4 -66 -14z"/>
<path d="M3265 4228 c-3 -7 -4 -224 -3 -483 l3 -470 480 0 480 0 3 483 2 482
-480 0 c-375 0 -482 -3 -485 -12z m820 -478 l0 -345 -334 -3 c-238 -2 -338 1
-347 9 -11 9 -14 73 -14 334 0 178 3 331 6 339 6 15 43 16 348 14 l341 -3 0
-345z"/>
<path d="M3553 3963 c-10 -3 -13 -55 -13 -209 l0 -204 208 2 207 3 3 194 c2
134 -1 198 -9 207 -9 11 -51 14 -198 13 -102 0 -192 -3 -198 -6z"/>
<path d="M1324 4086 c-3 -7 -4 -35 -2 -62 l3 -49 70 0 70 0 -1 47 c-2 74 -5
78 -74 78 -42 0 -62 -4 -66 -14z"/>
<path d="M1607 4093 c-3 -4 -7 -33 -8 -63 l-4 -55 60 -3 c32 -2 65 -8 72 -13
7 -6 13 -38 15 -72 l3 -62 135 0 135 0 1 50 c2 82 -4 89 -77 95 l-64 5 -5 60
-5 60 -127 3 c-69 1 -129 -1 -131 -5z"/>
<path d="M1465 3948 c-3 -13 -4 -75 -3 -138 l3 -115 63 -3 c34 -2 62 1 63 5 0
4 2 67 4 139 l4 131 -64 2 c-59 2 -65 0 -70 -21z"/>
<path d="M2302 3961 c-9 -5 -12 -27 -10 -72 l3 -64 70 0 69 0 -1 64 c-1 41 -6
67 -15 72 -17 11 -99 11 -116 0z"/>
<path d="M2013 3768 c-1 -29 -2 -58 -2 -65 -1 -8 -25 -13 -68 -15 l-68 -3 -3
-67 -3 -68 -49 0 c-77 0 -80 -3 -80 -81 l0 -69 -70 0 -70 0 0 63 c0 36 -5 68
-12 75 -7 7 -36 12 -64 12 l-53 0 -6 -53 c-4 -29 -5 -62 -3 -72 3 -18 -4 -21
-67 -25 l-70 -5 0 -60 0 -60 68 -3 c49 -2 67 0 68 10 1 7 2 22 3 33 1 11 3 35
4 53 l2 32 65 0 66 0 -5 -53 c-2 -30 -1 -59 3 -66 5 -8 30 -11 72 -9 l64 3 3
63 3 62 64 0 64 0 3 -62 3 -63 68 -3 c37 -2 67 1 68 5 0 4 2 24 5 43 3 19 2
45 -1 58 -5 20 -11 22 -75 22 l-70 0 0 75 0 75 140 0 141 0 -3 133 -3 132 -65
3 -65 3 -2 -53z"/>
<path d="M1327 3683 c-4 -3 -7 -35 -7 -70 l0 -63 70 0 70 0 0 54 c0 30 3 61 6
70 5 14 -4 16 -63 16 -38 0 -73 -3 -76 -7z"/>
<path d="M224 3117 c-3 -8 -4 -39 -2 -68 l3 -54 63 -3 63 -3 -3 -132 -3 -132
-60 -5 -60 -5 0 -70 0 -70 133 -3 132 -3 0 -48 c0 -77 4 -81 70 -81 44 0 59 4
64 16 9 23 7 237 -2 251 -4 6 -34 13 -67 15 l-60 3 0 60 0 60 135 5 135 5 3
68 3 67 64 0 64 0 3 -67 3 -68 70 0 c78 0 70 -10 74 92 l1 42 63 3 62 3 3 53
c4 71 -8 84 -72 80 l-51 -3 -3 -45 c-5 -91 -4 -90 -82 -90 l-69 0 -3 68 -3 67
-60 0 -60 0 -3 -68 -3 -68 -67 3 -67 3 -3 55 c-2 30 -8 60 -14 67 -6 7 -32 13
-58 13 -26 0 -52 -6 -58 -13 -6 -7 -12 -37 -14 -67 l-3 -55 -67 -3 -67 -3 -3
68 -3 68 -58 3 c-42 2 -59 -1 -63 -11z"/>
<path d="M1472 3118 c-15 -15 -16 -82 -2 -109 9 -15 22 -19 65 -19 l55 0 2
-32 c0 -18 2 -44 2 -58 3 -44 13 -50 82 -50 l65 0 -3 -62 -3 -63 -277 -3 -278
-2 0 49 c0 77 -4 81 -71 81 l-59 0 -1 -37 c0 -21 -2 -50 -4 -65 -4 -27 -3 -27
63 -30 l67 -3 3 -58 c4 -76 -7 -89 -72 -85 l-51 3 -5 70 -5 70 -135 0 -135 0
0 -70 0 -70 62 -3 62 -3 3 -62 3 -62 205 0 205 0 3 63 3 62 239 0 239 0 58 51
c32 28 79 63 105 77 36 20 48 33 49 52 1 14 2 41 3 60 l1 35 -137 3 -138 3 0
133 c0 113 -2 135 -16 140 -30 12 -239 7 -252 -6z"/>
<path d="M1180 2920 l0 -71 68 3 67 3 3 68 3 67 -71 0 -70 0 0 -70z"/>
<path d="M2018 2972 c-3 -10 -5 -40 -4 -68 l1 -49 65 0 65 0 0 65 0 65 -61 3
c-53 2 -62 0 -66 -16z"/>
<path d="M2141 2689 c-164 -28 -315 -172 -361 -341 -19 -72 -9 -221 19 -286
l24 -52 -31 -112 c-19 -68 -28 -116 -22 -122 5 -5 51 2 116 19 110 28 121 28
214 0 31 -9 89 -16 135 -16 145 0 266 61 354 177 114 150 131 321 49 485 -34
68 -124 166 -177 194 -99 50 -221 71 -320 54z m229 -112 c97 -36 185 -137 220
-251 19 -61 8 -181 -23 -249 -33 -72 -111 -151 -185 -185 -49 -23 -70 -27
-152 -27 -77 0 -106 4 -153 24 -54 22 -62 23 -118 11 -33 -7 -62 -10 -66 -7
-3 4 0 34 7 67 12 58 12 62 -16 122 -25 55 -29 74 -28 153 0 116 28 182 110
262 111 108 254 137 404 80z"/>
<path d="M2031 2416 c-59 -63 -33 -155 78 -266 64 -64 88 -81 148 -105 83 -32
130 -29 170 11 38 38 29 74 -27 101 -57 28 -56 28 -82 -2 -12 -14 -31 -25 -43
-25 -29 0 -95 49 -131 95 l-28 37 18 33 c18 32 18 36 1 77 -9 24 -21 49 -27
56 -16 19 -53 14 -77 -12z"/>
<path d="M220 2370 l0 -71 63 3 62 3 0 65 0 65 -62 3 -63 3 0 -71z"/>
<path d="M222 703 l3 -478 471 -3 471 -2 6 27 c7 38 8 899 1 918 -5 13 -66 15
-480 15 l-474 0 2 -477z m822 325 c3 -13 6 -163 6 -335 0 -270 -2 -314 -16
-327 -13 -14 -58 -16 -334 -16 -175 0 -325 3 -334 6 -14 5 -16 45 -16 343 0
186 3 341 7 344 3 4 158 7 344 7 l337 0 6 -22z"/>
<path d="M501 896 c-8 -9 -11 -72 -9 -202 l3 -189 203 -3 202 -2 0 199 c0 172
-2 200 -16 205 -9 3 -96 6 -194 6 -139 0 -180 -3 -189 -14z"/>
<path d="M2297 1043 c-13 -12 -8 -133 6 -134 48 -5 122 3 129 13 9 15 10 74 2
106 -6 20 -12 22 -68 22 -35 0 -66 -3 -69 -7z"/>
<path d="M3973 903 c-9 -3 -13 -27 -13 -69 l0 -65 63 3 62 3 0 65 0 65 -50 1
c-27 1 -56 0 -62 -3z"/>
<path d="M4097 624 c-4 -4 -7 -33 -7 -65 l0 -58 -62 -3 -63 -3 -3 -138 -3
-138 133 3 133 3 3 63 3 62 -55 0 c-84 0 -86 2 -86 81 l0 69 70 0 71 0 -3 63
-3 62 -60 3 c-34 2 -64 0 -68 -4z"/>
<path d="M1322 288 l3 -63 65 0 65 0 7 55 c3 30 4 58 2 62 -3 5 -37 8 -75 8
l-70 0 3 -62z"/>
</g>
</svg>
